<?xml version="1.0" encoding="UTF-8" standalone="no"?>
<svg
   xmlns:dc="http://purl.org/dc/elements/1.1/"
   xmlns:cc="http://creativecommons.org/ns#"
   xmlns:rdf="http://www.w3.org/1999/02/22-rdf-syntax-ns#"
   xmlns:svg="http://www.w3.org/2000/svg"
   xmlns="http://www.w3.org/2000/svg"
   xmlns:sodipodi="http://sodipodi.sourceforge.net/DTD/sodipodi-0.dtd"
   xmlns:inkscape="http://www.inkscape.org/namespaces/inkscape"
   viewBox="0 0 160 160"
   version="1.1"
   id="svg836"
   sodipodi:docname="elapid.svg"
   inkscape:version="0.92.4 (5da689c313, 2019-01-14)"
   inkscape:export-filename="/home/cba/favicon.png"
   inkscape:export-xdpi="19.198677"
   inkscape:export-ydpi="19.198677">
  <metadata
     id="metadata840">
    <rdf:RDF>
      <cc:Work
         rdf:about="">
        <dc:format>image/svg+xml</dc:format>
        <dc:type
           rdf:resource="http://purl.org/dc/dcmitype/StillImage" />
        <dc:title />
      </cc:Work>
    </rdf:RDF>
  </metadata>
  <sodipodi:namedview
     pagecolor="#ffffff"
     bordercolor="#666666"
     borderopacity="1"
     objecttolerance="10"
     gridtolerance="10"
     guidetolerance="10"
     inkscape:pageopacity="0"
     inkscape:pageshadow="2"
     inkscape:window-width="2666"
     inkscape:window-height="1616"
     id="namedview838"
     showgrid="false"
     inkscape:zoom="5.6568545"
     inkscape:cx="89.580559"
     inkscape:cy="73.477191"
     inkscape:window-x="0"
     inkscape:window-y="80"
     inkscape:window-maximized="1"
     inkscape:current-layer="symbol-color-white"
     inkscape:pagecheckerboard="true" />
  <defs
     id="defs817">
    <style
       id="style815">.cls-1{fill:#fff;}.cls-2{fill:#fdd37d;}.cls-3{fill:#f2a640;}.cls-4{fill:#174f3a;}</style>
  </defs>
  <g
     id="Layer_2"
     data-name="Layer 2">
    <g
       id="logo">
      <g
         id="symbol-color-white">
        <path
           class="cls-1"
           d="M135,50A25,25,0,0,1,116.12,8.62a80,80,0,1,0,35.26,35.26A24.9,24.9,0,0,1,135,50Z"
           id="path819" />
        <g
           id="sunset">
          <path
             class="cls-2"
             d="M2.52,100v0h0Z"
             id="path821" />
          <path
             class="cls-2"
             d="M157.48,100h0v0Z"
             id="path823" />
          <path
             class="cls-2"
             d="M151.38,43.88A25,25,0,0,1,116.12,8.62,80,80,0,0,0,2.52,100a98,98,0,0,1,155,0,80.18,80.18,0,0,0-6.1-56.11Z"
             id="path825" />
          <path
             class="cls-3"
             d="M80,62A97.82,97.82,0,0,0,2.52,100a80,80,0,0,0,27,42,98,98,0,0,1,101,0,80,80,0,0,0,27-42A97.82,97.82,0,0,0,80,62Z"
             id="path827" />
        </g>
        <path
           id="satellite"
           class="cls-4"
           d="M152,24a16,16,0,0,0-27.86-10.71,80.91,80.91,0,0,1,9.17,7.09,4.56,4.56,0,0,0,6.31,6.31,80.91,80.91,0,0,1,7.09,9.17A16,16,0,0,0,152,24Z"
           style="fill:#ffffff;fill-opacity:1" />
        <path
           style="fill:#134f3a;fill-opacity:1;stroke:#134f3a;stroke-width:0.00340016;stroke-miterlimit:4;stroke-dasharray:none;stroke-opacity:1"
           d=""
           id="path1584"
           inkscape:connector-curvature="0" />
        <path
           style="fill:#134f3a;fill-opacity:1;stroke:#134f3a;stroke-width:0.00340016;stroke-miterlimit:4;stroke-dasharray:none;stroke-opacity:1"
           d=""
           id="path1586"
           inkscape:connector-curvature="0" />
        <path
           style="fill:#134f3a;fill-opacity:1;stroke:#134f3a;stroke-width:0.00340016;stroke-miterlimit:4;stroke-dasharray:none;stroke-opacity:1"
           d=""
           id="path1590"
           inkscape:connector-curvature="0" />
        <path
           style="fill:#134f3a;fill-opacity:1;stroke:#134f3a;stroke-width:0.00340016;stroke-miterlimit:4;stroke-dasharray:none;stroke-opacity:1"
           d=""
           id="path1594"
           inkscape:connector-curvature="0" />
        <path
           style="fill:#134f3a;fill-opacity:1;stroke:#134f3a;stroke-width:0.00340016;stroke-miterlimit:4;stroke-dasharray:none;stroke-opacity:1"
           d=""
           id="path1596"
           inkscape:connector-curvature="0" />
        <path
           style="fill:#134f3a;fill-opacity:1;stroke:#134f3a;stroke-width:0.00340016;stroke-miterlimit:4;stroke-dasharray:none;stroke-opacity:1"
           d=""
           id="path1598"
           inkscape:connector-curvature="0" />
        <g
           id="g1627"
           transform="matrix(1.3326332,-1.4704903,1.1822991,1.6574693,-318.46632,174.89894)">
          <g
             transform="translate(169.12955,93.552023)"
             id="g1574"
             style="fill:#134f3a;fill-opacity:1;stroke:#134f3a;stroke-width:1.00702107;stroke-miterlimit:4;stroke-dasharray:none;stroke-opacity:1">
            <path
               style="fill:#134f3a;fill-opacity:1;stroke:#134f3a;stroke-width:1.00702107;stroke-miterlimit:4;stroke-dasharray:none;stroke-opacity:1"
               inkscape:connector-curvature="0"
               d="M 47.6208,1.88008 V 0.376282 H 46.1061 V 2.32069 L 43.5226,4.88541 C 42.5267,4.2087 41.199,4.25983 40.4401,5.05459 L 39.4494,6.09221 C 39.4441,6.09749 38.995,6.55011 38.2361,6.96215 38.2142,6.94185 38.1967,6.91704 38.1733,6.89749 37.2636,6.12604 35.8572,6.19672 35.0354,7.05539 34.734,7.37118 34.5522,7.77194 34.4856,8.18398 c -0.5915,0.25264 -1.0672,0.56393 -1.4353,0.9504 -0.727,0.76167 -0.958,1.81812 -1.1436,2.66702 -0.0704,0.324 -0.1674,0.7677 -0.2355,0.8677 -1.096,1.1458 -2.9781,1.2383 -4.1959,0.2045 L 23.6172,9.59755 C 19.6682,6.24409 13.5607,6.54635 10.0048,10.2728 l -0.99296,1.0391 c -1.20045,1.2579 -1.81317,2.8835 -1.7238,4.5775 0.09014,1.7068 0.87856,3.2738 2.21988,4.4129 L 24.3905,32.938 c 0.4317,0.3669 0.6854,0.8669 0.7142,1.4083 0.028,0.5353 -0.1682,1.0519 -0.5522,1.4541 -0.8225,0.8617 -2.2335,0.9286 -3.1484,0.1534 l -7.67,-6.5122 c -2.7584,-2.3421 -7.0247,-2.1301 -9.51118,0.473 -2.53722,2.6564 -2.73338,6.6656 -0.4673,9.534 l 0.61272,0.7745 c 1.30724,1.6542 1.19212,3.9678 -0.27266,5.5016 L 2.39915,47.5015 6.51021,46.606 c 1.83059,-0.3986 3.25522,-1.6557 3.81119,-3.3618 0.5309,-1.6309 0.1507,-3.379 -1.01797,-4.6775 L 8.48698,37.6599 c -0.68619,-0.7632 -0.68316,-1.867 0.00762,-2.6264 0.67256,-0.7414 1.8942,-0.8166 2.6683,-0.1654 l 10.5124,8.8348 c 3.4597,2.4271 8.3872,1.7579 10.9873,-1.4925 1.7427,-2.1783 2.5183,-4.8731 2.1828,-7.5882 -0.3408,-2.7595 -1.7867,-5.2392 -4.0717,-6.9829 l -12.59,-9.6107 C 17.624,17.6015 17.4915,16.8519 17.8755,16.2842 l 0.0621,-0.0925 c 0.2181,-0.3226 0.5612,-0.5399 0.9656,-0.6121 0.4136,-0.0706 0.8445,0.0196 1.18,0.2579 l 5.2358,3.7242 c 4.0194,2.8602 9.5915,2.3534 12.952,-1.1669 0.1158,-0.0925 0.5847,-0.2331 0.9277,-0.3354 0.868,-0.2609 1.948,-0.5835 2.6675,-1.3384 0.3681,-0.3849 0.6484,-0.8639 0.8559,-1.4459 0.4279,-0.097 0.8233,-0.312 1.1292,-0.6323 l 8e-4,-8e-4 c 0.4075,-0.4263 0.6142,-0.9812 0.5839,-1.5617 -0.031,-0.5834 -0.2976,-1.1173 -0.7513,-1.503 -0.0098,-0.0083 -0.0212,-0.0135 -0.031,-0.0218 0.3461,-0.7083 0.7475,-1.1459 0.7513,-1.1504 L 45.3979,9.36522 C 45.7774,8.96746 45.9705,8.43738 45.9409,7.87345 45.9076,7.22983 45.5819,6.60049 45.0488,6.1471 L 44.6966,5.84784 47.177,3.38387 h 1.9586 V 1.88008 Z M 36.1352,8.09 c 0.1439,-0.15113 0.3483,-0.22783 0.5536,-0.22783 0.1795,0 0.3598,0.05865 0.4999,0.17745 0.0712,0.06015 0.1219,0.12331 0.159,0.19775 0.1151,0.23008 0.0735,0.50001 -0.1068,0.68874 C 36.9721,9.20807 36.4888,9.23138 36.1882,8.97573 36.0655,8.87122 35.9943,8.74566 35.9716,8.584 35.9435,8.41257 36.0049,8.22609 36.1352,8.09 Z m -26.0229,4.2565 0.9929,-1.0399 c 1.0945,-1.1459 2.4752,-1.90379 3.9483,-2.27447 V 10.087 c 0,1.2956 -0.5082,2.5129 -1.4307,3.4287 -1.1573,1.1481 -2.8076,1.6421 -4.41025,1.3263 L 8.86945,14.7736 C 9.0285,13.8773 9.45112,13.039 10.1123,12.3465 Z M 32.7027,32.459 c -0.9588,0.7166 -1.7624,0.9466 -2.385,0.6677 -1.052,-0.4692 -1.6094,-2.3114 -1.6435,-2.9324 -0.0515,-0.9203 -0.8649,-1.2933 -1.5193,-1.5933 -0.5597,-0.2564 -1.0884,-0.4992 -1.2936,-0.991 -0.2106,-0.5053 0.2802,-1.0083 0.6718,-1.312 l 3.3211,2.5346 c 1.28,0.976 2.2464,2.2241 2.8485,3.6264 z M 42.7531,13.6074 c -0.1439,0.1497 -0.3582,0.2399 -0.5884,0.2233 -0.1765,-0.0037 -0.3333,-0.0631 -0.4643,-0.1737 -0.1356,-0.1142 -0.2144,-0.2706 -0.2234,-0.4391 -0.0083,-0.1646 0.0522,-0.324 0.1711,-0.4481 0.1386,-0.1451 0.3477,-0.2256 0.5597,-0.2256 0.0856,0 0.1712,0.0136 0.2522,0.0399 0.0909,0.0301 0.1674,0.0737 0.2409,0.1361 0.1348,0.1143 0.2143,0.2699 0.2227,0.4383 0.0098,0.1647 -0.0515,0.3241 -0.1705,0.4489 z m 1.5451,-5.27679 -0.9929,1.03912 c -0.0288,0.03084 -0.6158,0.65717 -1.0831,1.67227 -0.6263,-0.0061 -1.2383,0.2368 -1.6745,0.6924 -0.4075,0.4264 -0.615,0.9813 -0.584,1.5617 0.0303,0.5828 0.2969,1.1166 0.7513,1.5038 0.1386,0.1173 0.2916,0.2098 0.4499,0.2895 -0.1121,0.2354 -0.2431,0.4354 -0.3976,0.597 -0.4431,0.4639 -1.3103,0.7241 -2.0063,0.9324 -0.6892,0.206 -1.233,0.3692 -1.5776,0.7301 -2.8076,2.9384 -7.6314,3.373 -10.982,0.9902 L 20.9656,14.615 c -0.665,-0.4737 -1.5148,-0.6602 -2.332,-0.5158 -0.8119,0.1451 -1.5057,0.591 -1.9548,1.2541 l -0.0621,0.0925 c -0.8354,1.2346 -0.5589,2.8572 0.643,3.7753 l 8.0389,6.1355 c -0.7324,0.6737 -1.3202,1.6714 -0.8385,2.8271 0.4317,1.0361 1.3717,1.4677 2.0586,1.782 0.2348,0.1083 0.59,0.2707 0.6415,0.3113 0.0348,0.6286 0.5953,3.3557 2.535,4.2211 0.3794,0.17 0.774,0.2542 1.1845,0.2542 0.7256,0 1.5004,-0.2782 2.3138,-0.806 0.0644,0.2819 0.1151,0.5684 0.1507,0.8586 0.0364,0.2955 0.0568,0.5903 0.0621,0.885 -0.0657,3.0926 -0.7097,3.9316 -2.0782,5.7543 -2.1427,2.485 -6.0242,2.9617 -8.7243,1.0714 L 17.4809,38.208 12.6162,34.1169 12.1451,33.7207 c -1.4042,-1.182 -3.54603,-1.0444 -4.77223,0.3045 -1.19893,1.3181 -1.20424,3.3106 -0.01212,4.6355 l 0.81646,0.9067 c 0.81797,0.9091 1.07472,2.0805 0.70588,3.2129 -0.37642,1.1549 -1.33375,2.0173 -2.57434,2.3271 0.83842,-1.882 0.60363,-4.1061 -0.74602,-5.8136 L 4.95001,38.5193 C 0.291287,32.3474 8.80856,26.4582 12.751,30.5838 l 7.2466,6.1527 c 3.2514,2.5841 4.9144,1.0446 5.4528,0.4669 0.4786,-0.6375 0.9967,-1.1682 1.1539,-2.6466 0.003,-0.097 0.0197,-0.1917 0.0144,-0.2887 -0.0508,-0.9572 -0.4916,-1.8347 -1.2421,-2.4723 L 14.5119,22.5715 10.4933,19.1602 C 9.60184,18.403 9.03153,17.403 8.85431,16.3045 l 0.05982,0.012 c 0.41959,0.0835 0.84145,0.1241 1.26027,0.1241 1.6791,0 3.3052,-0.6564 4.5193,-1.8617 1.2088,-1.1993 1.8745,-2.7948 1.8745,-4.4919 V 8.79152 c 2.1434,-0.14888 4.3451,0.48723 6.0651,1.94818 l 1.6541,1.4045 c 1.7898,1.3574 3.3213,2.772 5.3585,2.9377 1.1558,-0.0451 2.2918,-0.5068 3.125,-1.3797 0.3514,-0.3677 0.4741,-0.9309 0.6165,-1.5828 0.153,-0.7008 0.3264,-1.4948 0.7619,-1.9519 0.1727,-0.18047 0.3999,-0.33761 0.6733,-0.47972 0.1068,0.15489 0.2287,0.30226 0.3802,0.43012 0.4234,0.3594 0.9536,0.5361 1.483,0.5361 0.6081,0 1.2148,-0.2346 1.6541,-0.69328 0.4302,-0.44964 0.6241,-1.05717 0.5695,-1.65192 1.0119,-0.53986 1.6079,-1.15116 1.6367,-1.18123 l 0.993,-1.03988 c 0.2643,-0.27745 0.8414,-0.22857 1.2345,0.10527 l 1.289,1.09476 c 0.2197,0.18647 0.3522,0.42783 0.3644,0.66242 0.009,0.15339 -0.0349,0.28122 -0.1288,0.38047 z"
               id="path1560" />
            <path
               style="fill:#134f3a;fill-opacity:1;stroke:#134f3a;stroke-width:1.00702107;stroke-miterlimit:4;stroke-dasharray:none;stroke-opacity:1"
               inkscape:connector-curvature="0"
               d="M 47.6208,1.88008 V 0.376282 H 46.1061 V 2.32069 L 43.5226,4.88541 C 42.5267,4.2087 41.199,4.25983 40.4401,5.05459 L 39.4494,6.09221 C 39.4441,6.09749 38.995,6.55011 38.2361,6.96215 38.2142,6.94185 38.1967,6.91704 38.1733,6.89749 37.2636,6.12604 35.8572,6.19672 35.0354,7.05539 34.734,7.37118 34.5522,7.77194 34.4856,8.18398 c -0.5915,0.25264 -1.0672,0.56393 -1.4353,0.9504 -0.727,0.76167 -0.958,1.81812 -1.1436,2.66702 -0.0704,0.324 -0.1674,0.7677 -0.2355,0.8677 -1.096,1.1458 -2.9781,1.2383 -4.1959,0.2045 L 23.6172,9.59755 C 19.6682,6.24409 13.5607,6.54635 10.0048,10.2728 l -0.99296,1.0391 c -1.20045,1.2579 -1.81317,2.8835 -1.7238,4.5775 0.09014,1.7068 0.87856,3.2738 2.21988,4.4129 L 24.3905,32.938 c 0.4317,0.3669 0.6854,0.8669 0.7142,1.4083 0.028,0.5353 -0.1682,1.0519 -0.5522,1.4541 -0.8225,0.8617 -2.2335,0.9286 -3.1484,0.1534 l -7.67,-6.5122 c -2.7584,-2.3421 -7.0247,-2.1301 -9.51118,0.473 -2.53722,2.6564 -2.73338,6.6656 -0.4673,9.534 l 0.61272,0.7745 c 1.30724,1.6542 1.19212,3.9678 -0.27266,5.5016 L 2.39915,47.5015 6.51021,46.606 c 1.83059,-0.3986 3.25522,-1.6557 3.81119,-3.3618 0.5309,-1.6309 0.1507,-3.379 -1.01797,-4.6775 L 8.48698,37.6599 c -0.68619,-0.7632 -0.68316,-1.867 0.00762,-2.6264 0.67256,-0.7414 1.8942,-0.8166 2.6683,-0.1654 l 10.5124,8.8348 c 3.4597,2.4271 8.3872,1.7579 10.9873,-1.4925 1.7427,-2.1783 2.5183,-4.8731 2.1828,-7.5882 -0.3408,-2.7595 -1.7867,-5.2392 -4.0717,-6.9829 l -12.59,-9.6107 C 17.624,17.6015 17.4915,16.8519 17.8755,16.2842 l 0.0621,-0.0925 c 0.2181,-0.3226 0.5612,-0.5399 0.9656,-0.6121 0.4136,-0.0706 0.8445,0.0196 1.18,0.2579 l 5.2358,3.7242 c 4.0194,2.8602 9.5915,2.3534 12.952,-1.1669 0.1158,-0.0925 0.5847,-0.2331 0.9277,-0.3354 0.868,-0.2609 1.948,-0.5835 2.6675,-1.3384 0.3681,-0.3849 0.6484,-0.8639 0.8559,-1.4459 0.4279,-0.097 0.8233,-0.312 1.1292,-0.6323 l 8e-4,-8e-4 c 0.4075,-0.4263 0.6142,-0.9812 0.5839,-1.5617 -0.031,-0.5834 -0.2976,-1.1173 -0.7513,-1.503 -0.0098,-0.0083 -0.0212,-0.0135 -0.031,-0.0218 0.3461,-0.7083 0.7475,-1.1459 0.7513,-1.1504 L 45.3979,9.36522 C 45.7774,8.96746 45.9705,8.43738 45.9409,7.87345 45.9076,7.22983 45.5819,6.60049 45.0488,6.1471 L 44.6966,5.84784 47.177,3.38387 h 1.9586 V 1.88008 Z M 36.1352,8.09 c 0.1439,-0.15113 0.3483,-0.22783 0.5536,-0.22783 0.1795,0 0.3598,0.05865 0.4999,0.17745 0.0712,0.06015 0.1219,0.12331 0.159,0.19775 0.1151,0.23008 0.0735,0.50001 -0.1068,0.68874 C 36.9721,9.20807 36.4888,9.23138 36.1882,8.97573 36.0655,8.87122 35.9943,8.74566 35.9716,8.584 35.9435,8.41257 36.0049,8.22609 36.1352,8.09 Z m -26.0229,4.2565 0.9929,-1.0399 c 1.0945,-1.1459 2.4752,-1.90379 3.9483,-2.27447 V 10.087 c 0,1.2956 -0.5082,2.5129 -1.4307,3.4287 -1.1573,1.1481 -2.8076,1.6421 -4.41025,1.3263 L 8.86945,14.7736 C 9.0285,13.8773 9.45112,13.039 10.1123,12.3465 Z M 32.7027,32.459 c -0.9588,0.7166 -1.7624,0.9466 -2.385,0.6677 -1.052,-0.4692 -1.6094,-2.3114 -1.6435,-2.9324 -0.0515,-0.9203 -0.8649,-1.2933 -1.5193,-1.5933 -0.5597,-0.2564 -1.0884,-0.4992 -1.2936,-0.991 -0.2106,-0.5053 0.2802,-1.0083 0.6718,-1.312 l 3.3211,2.5346 c 1.28,0.976 2.2464,2.2241 2.8485,3.6264 z M 42.7531,13.6074 c -0.1439,0.1497 -0.3582,0.2399 -0.5884,0.2233 -0.1765,-0.0037 -0.3333,-0.0631 -0.4643,-0.1737 -0.1356,-0.1142 -0.2144,-0.2706 -0.2234,-0.4391 -0.0083,-0.1646 0.0522,-0.324 0.1711,-0.4481 0.1386,-0.1451 0.3477,-0.2256 0.5597,-0.2256 0.0856,0 0.1712,0.0136 0.2522,0.0399 0.0909,0.0301 0.1674,0.0737 0.2409,0.1361 0.1348,0.1143 0.2143,0.2699 0.2227,0.4383 0.0098,0.1647 -0.0515,0.3241 -0.1705,0.4489 z m 1.5451,-5.27679 -0.9929,1.03912 c -0.0288,0.03084 -0.6158,0.65717 -1.0831,1.67227 -0.6263,-0.0061 -1.2383,0.2368 -1.6745,0.6924 -0.4075,0.4264 -0.615,0.9813 -0.584,1.5617 0.0303,0.5828 0.2969,1.1166 0.7513,1.5038 0.1386,0.1173 0.2916,0.2098 0.4499,0.2895 -0.1121,0.2354 -0.2431,0.4354 -0.3976,0.597 -0.4431,0.4639 -1.3103,0.7241 -2.0063,0.9324 -0.6892,0.206 -1.233,0.3692 -1.5776,0.7301 -2.8076,2.9384 -7.6314,3.373 -10.982,0.9902 L 20.9656,14.615 c -0.665,-0.4737 -1.5148,-0.6602 -2.332,-0.5158 -0.8119,0.1451 -1.5057,0.591 -1.9548,1.2541 l -0.0621,0.0925 c -0.8354,1.2346 -0.5589,2.8572 0.643,3.7753 l 8.0389,6.1355 c -0.7324,0.6737 -1.3202,1.6714 -0.8385,2.8271 0.4317,1.0361 1.3717,1.4677 2.0586,1.782 0.2348,0.1083 0.59,0.2707 0.6415,0.3113 0.0348,0.6286 0.5953,3.3557 2.535,4.2211 0.3794,0.17 0.774,0.2542 1.1845,0.2542 0.7256,0 1.5004,-0.2782 2.3138,-0.806 0.0644,0.2819 0.1151,0.5684 0.1507,0.8586 0.0364,0.2955 0.0568,0.5903 0.0621,0.885 -0.0657,3.0926 -0.7097,3.9316 -2.0782,5.7543 -2.1427,2.485 -6.0242,2.9617 -8.7243,1.0714 L 17.4809,38.208 12.6162,34.1169 12.1451,33.7207 c -1.4042,-1.182 -3.54603,-1.0444 -4.77223,0.3045 -1.19893,1.3181 -1.20424,3.3106 -0.01212,4.6355 l 0.81646,0.9067 c 0.81797,0.9091 1.07472,2.0805 0.70588,3.2129 -0.37642,1.1549 -1.33375,2.0173 -2.57434,2.3271 0.83842,-1.882 0.60363,-4.1061 -0.74602,-5.8136 L 4.95001,38.5193 C 0.291287,32.3474 8.80856,26.4582 12.751,30.5838 l 7.2466,6.1527 c 3.2514,2.5841 4.9144,1.0446 5.4528,0.4669 0.4786,-0.6375 0.9967,-1.1682 1.1539,-2.6466 0.003,-0.097 0.0197,-0.1917 0.0144,-0.2887 -0.0508,-0.9572 -0.4916,-1.8347 -1.2421,-2.4723 L 14.5119,22.5715 10.4933,19.1602 C 9.60184,18.403 9.03153,17.403 8.85431,16.3045 l 0.05982,0.012 c 0.41959,0.0835 0.84145,0.1241 1.26027,0.1241 1.6791,0 3.3052,-0.6564 4.5193,-1.8617 1.2088,-1.1993 1.8745,-2.7948 1.8745,-4.4919 V 8.79152 c 2.1434,-0.14888 4.3451,0.48723 6.0651,1.94818 l 1.6541,1.4045 c 1.7898,1.3574 3.3213,2.772 5.3585,2.9377 1.1558,-0.0451 2.2918,-0.5068 3.125,-1.3797 0.3514,-0.3677 0.4741,-0.9309 0.6165,-1.5828 0.153,-0.7008 0.3264,-1.4948 0.7619,-1.9519 0.1727,-0.18047 0.3999,-0.33761 0.6733,-0.47972 0.1068,0.15489 0.2287,0.30226 0.3802,0.43012 0.4234,0.3594 0.9536,0.5361 1.483,0.5361 0.6081,0 1.2148,-0.2346 1.6541,-0.69328 0.4302,-0.44964 0.6241,-1.05717 0.5695,-1.65192 1.0119,-0.53986 1.6079,-1.15116 1.6367,-1.18123 l 0.993,-1.03988 c 0.2643,-0.27745 0.8414,-0.22857 1.2345,0.10527 l 1.289,1.09476 c 0.2197,0.18647 0.3522,0.42783 0.3644,0.66242 0.009,0.15339 -0.0349,0.28122 -0.1288,0.38047 z"
               mask="url(#path-1-outside-1)"
               id="path1562" />
          </g>
          <path
             inkscape:connector-curvature="0"
             id="path1576"
             d="m 176.43253,136.64944 c 0.0716,-1.69559 -0.31169,-2.80225 -1.5351,-4.43241 -1.21766,-1.62251 -1.60124,-2.54036 -1.59871,-3.82555 0.004,-2.16189 1.6913,-4.22314 4.00256,-4.89032 0.87679,-0.2531 2.18272,-0.17964 2.91735,0.16412 0.37978,0.17771 1.78719,1.3055 4.37659,3.50705 2.09924,1.7848 4.1145,3.47124 4.47837,3.74763 0.89311,0.67839 1.97194,1.17602 2.84129,1.31058 1.26664,0.19606 2.41288,-0.28629 3.28427,-1.38207 0.5809,-0.73047 0.8812,-1.43267 1.02001,-2.38502 0.10322,-0.70817 0.095,-0.89877 -0.0638,-1.48551 -0.1011,-0.37349 -0.34858,-0.91182 -0.55599,-1.20941 -0.27008,-0.3875 -2.46872,-2.31567 -7.92335,-6.94863 -4.15226,-3.52677 -7.73723,-6.59547 -7.9666,-6.81934 -0.39846,-0.38889 -0.91574,-1.15242 -0.91574,-1.35168 0,-0.0518 0.43011,-0.1198 0.95579,-0.15117 2.8068,-0.16745 5.2164,-2.00235 6.13478,-4.67162 0.18575,-0.53987 0.27229,-1.04947 0.31258,-1.8407 l 0.0557,-1.09415 h 0.44789 c 0.66094,0 1.92382,0.28275 2.68571,0.60131 0.87077,0.36409 1.53515,0.81322 2.84266,1.92168 3.56905,3.02572 5.44779,3.98567 7.21656,3.68733 1.30075,-0.2194 2.73707,-1.09647 3.16306,-1.93148 0.10696,-0.20966 0.31419,-0.85345 0.4605,-1.43064 0.26174,-1.03257 0.46643,-1.55737 0.65219,-1.67218 0.0518,-0.032 0.33439,0.091 0.62787,0.27344 0.50021,0.31095 0.59149,0.33171 1.45862,0.33171 0.82575,0 0.9761,-0.03 1.40098,-0.2798 0.65045,-0.38237 1.0796,-0.931 1.27681,-1.63231 0.1507,-0.53592 0.22129,-0.62878 0.78403,-1.03132 0.34013,-0.2433 0.88501,-0.72255 1.21086,-1.06499 0.32585,-0.34244 0.66305,-0.62262 0.74935,-0.62262 0.13921,0 1.76253,1.28843 1.76253,1.39892 0,0.0242 -0.27756,0.34909 -0.61681,0.72201 -0.33924,0.37293 -0.80363,0.96431 -1.03198,1.31418 -0.26489,0.40585 -0.48414,0.63613 -0.60568,0.63613 -0.37166,0 -1.11415,0.43796 -1.51549,0.8939 -0.91581,1.04042 -0.88261,2.57671 0.0779,3.60227 l 0.25496,0.27225 -0.49517,0.24843 c -0.27234,0.13663 -0.88262,0.37286 -1.35617,0.52495 -1.13264,0.36378 -1.36556,0.49182 -2.09066,1.1493 -0.82184,0.74521 -1.73773,1.27227 -2.90076,1.66928 -0.90419,0.30866 -1.05936,0.33044 -2.39186,0.33579 -2.48865,0.01 -3.10137,-0.25893 -7.15767,-3.1416 -1.62322,-1.15356 -3.17298,-2.19945 -3.4439,-2.32419 -0.39354,-0.1812 -0.67719,-0.22691 -1.41075,-0.22732 -0.83315,-4.7e-4 -0.98119,0.0305 -1.59878,0.33455 -2.17261,1.06958 -2.65727,3.95184 -0.9297,5.52896 0.22381,0.20431 7.29216,5.62534 7.69152,5.89895 0.0467,0.032 -0.0649,0.34858 -0.24794,0.70356 -0.28103,0.54501 -0.33168,0.74974 -0.32556,1.31591 0.0136,1.25815 0.68373,2.18184 2.11899,2.92068 l 0.75614,0.38924 0.16343,0.66502 c 0.39586,1.61077 1.43306,3.0736 2.57568,3.63263 0.76715,0.37533 1.77723,0.43175 2.67007,0.14915 0.50117,-0.15862 0.67665,-0.17886 0.73636,-0.0849 0.21307,0.33529 -0.0153,2.53002 -0.36957,3.55094 -0.3053,0.87991 -1.04744,1.99818 -1.88507,2.84049 -1.75647,1.76627 -4.57117,2.21443 -6.82786,1.08714 -0.48529,-0.24241 -2.10365,-1.54399 -5.98153,-4.8107 -2.92394,-2.4631 -5.57649,-4.6247 -5.89455,-4.80356 -2.87529,-1.61682 -6.43397,0.89579 -5.83936,4.12289 0.16496,0.89523 0.49198,1.4957 1.33439,2.45013 0.85686,0.97081 1.12762,1.52886 1.12977,2.32848 0.002,0.81752 -0.50158,1.8788 -1.02473,2.15878 -0.15,0.0803 -0.16274,-0.004 -0.12726,-0.84457 z"
             style="fill:#134f3a;fill-opacity:1;stroke:#134f3a;stroke-width:0.03873855;stroke-miterlimit:4;stroke-dasharray:none;stroke-opacity:1" />
          <path
             inkscape:connector-curvature="0"
             id="path1578"
             d="m 178.87003,107.91014 c -0.22542,-0.0589 -0.22776,-0.041 0.0876,-0.67114 0.17567,-0.351 0.68452,-0.94777 1.50127,-1.76068 1.08972,-1.08459 1.34837,-1.28604 2.19176,-1.70704 0.52593,-0.26253 0.97657,-0.45699 1.00143,-0.43213 0.0249,0.0249 -0.006,0.38081 -0.0693,0.79101 -0.29467,1.91853 -1.5853,3.30791 -3.43738,3.70037 -0.69855,0.14802 -0.95283,0.16389 -1.27536,0.0796 z"
             style="fill:#134f3a;fill-opacity:1;stroke:#134f3a;stroke-width:0.18492807;stroke-miterlimit:4;stroke-dasharray:none;stroke-opacity:1" />
          <path
             inkscape:connector-curvature="0"
             id="path1580"
             d="m 170.55926,141.38997 c 0.19608,-0.20993 0.88794,-0.94037 1.53748,-1.62322 1.5351,-1.6138 1.75958,-2.04609 1.76006,-3.38951 4.3e-4,-1.16917 -0.12809,-1.49363 -1.08964,-2.75097 -1.32283,-1.72977 -1.79628,-2.92065 -1.88462,-4.74046 -0.11393,-2.34723 0.70279,-4.35871 2.43828,-6.00513 1.29745,-1.23085 2.80972,-1.85527 4.70952,-1.94457 1.29515,-0.0609 2.47851,0.16508 3.55062,0.67798 0.89731,0.42928 1.15025,0.62802 5.44703,4.27969 2.14074,1.81934 4.03782,3.38612 4.21575,3.48174 0.69168,0.37172 1.74486,0.11525 2.23351,-0.5439 0.2851,-0.38458 0.33472,-1.0779 0.10634,-1.48593 -0.10729,-0.19169 -3.39512,-3.05222 -7.86878,-6.84612 -4.22646,-3.58427 -7.87606,-6.73326 -8.11022,-6.99775 -1.79012,-2.02203 -2.16238,-4.90654 -0.94622,-7.33189 0.47749,-0.95223 1.91332,-2.59463 3.10225,-3.54855 3.13375,-2.51435 7.61147,-2.96886 11.28412,-1.14541 1.03376,0.51326 1.39701,0.78524 4.02741,3.0154 2.28534,1.9376 2.65597,2.16577 3.51798,2.16577 0.48702,0 1.21788,-0.23053 1.55842,-0.49156 0.17455,-0.13379 0.29952,-0.43974 0.48428,-1.18562 0.42992,-1.73563 0.9711,-2.59887 2.07221,-3.30546 0.32299,-0.20726 0.54788,-0.44895 0.67024,-0.72028 0.58127,-1.289021 2.24787,-1.854526 3.64462,-1.236676 0.52838,0.233726 0.46046,0.271975 1.74919,-0.985105 0.69248,-0.675478 1.03941,-0.93611 1.41762,-1.064978 0.63256,-0.215534 1.3093,-0.217216 1.9327,-0.0048 l 0.48666,0.165822 1.05819,-1.054588 1.05819,-1.054589 V 94.572447 93.42559 h 1.27226 1.27227 v 0.763359 0.763359 h 0.71247 0.71246 v 1.221374 1.221374 h -1.09232 -1.09233 l -0.9876,0.983889 -0.98759,0.983888 0.34622,0.404479 c 0.47125,0.550548 0.69796,1.269228 0.63152,2.001918 -0.0692,0.76372 -0.23593,1.06089 -1.13324,2.02039 -0.93583,1.00068 -1.04921,1.1944 -0.8366,1.42933 0.51411,0.56809 0.62056,1.7722 0.23069,2.60942 -0.25406,0.54557 -0.7554,1.05116 -1.24233,1.25285 -0.20189,0.0836 -0.39522,0.30598 -0.59071,0.67935 -0.54662,1.04403 -1.51902,1.71009 -3.27289,2.24181 -0.76909,0.23317 -0.99714,0.35508 -1.43599,0.76766 -1.1075,1.04121 -2.72761,1.90757 -4.39683,2.35122 -1.00938,0.26828 -3.08834,0.36317 -4.16775,0.19024 -1.12184,-0.17973 -2.28531,-0.5635 -3.24921,-1.07175 -0.45881,-0.24193 -2.08477,-1.32963 -3.61323,-2.41711 -1.52846,-1.08748 -2.87906,-2.03047 -3.00133,-2.09554 -0.50953,-0.27114 -1.13645,-0.0726 -1.41726,0.44884 -0.16425,0.305 -0.16783,0.37046 -0.035,0.6418 0.10032,0.20497 2.25964,1.91004 6.71277,5.3006 6.82449,5.1961 7.72903,5.96514 8.64028,7.34602 0.97172,1.4725 1.56141,3.12204 1.76605,4.9402 0.26828,2.38355 -0.4622,5.08147 -1.9382,7.15843 -1.51059,2.12564 -3.66755,3.33552 -6.43531,3.60967 -1.38514,0.1372 -3.59091,-0.35517 -4.87025,-1.08713 -0.30338,-0.17358 -2.84693,-2.24404 -5.65233,-4.60102 -6.36291,-5.34585 -5.86243,-4.95027 -6.34514,-5.01502 -1.09704,-0.14714 -1.99089,1.05502 -1.49699,2.01333 0.0985,0.19104 0.45212,0.64506 0.78591,1.00893 1.12192,1.22304 1.60377,2.36844 1.59947,3.80207 -0.003,1.00887 -0.11914,1.54423 -0.5147,2.37304 -0.53309,1.11699 -1.63888,2.13072 -2.89248,2.65167 -0.44954,0.18681 -5.99282,1.45312 -6.36106,1.45312 -0.0854,0 7.9e-4,-0.15433 0.21314,-0.38168 z m 6.50177,-4.29691 c 0.41017,-0.57603 0.6086,-1.15786 0.6086,-1.78452 0,-0.79767 -0.22211,-1.26983 -1.03676,-2.20391 -0.87082,-0.9985 -1.14979,-1.44428 -1.35651,-2.16762 -0.4007,-1.40205 0.0434,-2.91623 1.15338,-3.93227 0.32053,-0.29341 0.48926,-0.4837 0.37496,-0.42285 -0.39182,0.20858 -1.18049,1.15052 -1.44252,1.72287 -0.35243,0.76982 -0.42148,1.7555 -0.18433,2.63159 0.1786,0.6598 0.61075,1.34478 1.63465,2.59102 0.54088,0.65833 0.81121,1.43995 0.71649,2.0716 -0.0844,0.56301 -0.47644,1.38093 -0.80834,1.6866 l -0.26792,0.24675 v -0.44183 c 0,-0.57389 -0.0575,-0.49613 -0.13407,0.18118 l -0.0608,0.53819 0.29695,-0.21145 c 0.16333,-0.1163 0.39113,-0.34371 0.50623,-0.50535 z m 20.04976,-0.58011 c 1.40097,-0.36402 2.60901,-1.2548 3.5524,-2.61946 0.91677,-1.32614 1.34726,-2.57261 1.32164,-3.82668 -0.0113,-0.55108 -0.0128,-0.548 -0.0992,0.19806 -0.19117,1.65006 -0.66747,2.79161 -1.67385,4.01169 -1.30086,1.5771 -2.79221,2.30425 -4.72593,2.30425 -0.93277,0 -1.74759,-0.16891 -2.48347,-0.51482 -0.52593,-0.24721 -2.07942,-1.47632 -5.92569,-4.68832 -4.18524,-3.49509 -4.51705,-3.76769 -4.51705,-3.71106 0,0.11332 9.5439,8.07811 9.97455,8.32419 1.29538,0.74018 2.99237,0.93379 4.57664,0.52215 z m -20.75717,-1.4969 c -0.1615,-0.7779 -0.68154,-1.78928 -1.52432,-2.96451 -0.40144,-0.55979 -0.86379,-1.29765 -1.02745,-1.63968 -0.71846,-1.5015 -0.53859,-3.35777 0.45674,-4.71369 1.1805,-1.60815 3.11878,-2.50873 4.85804,-2.25717 1.18976,0.17208 1.03001,0.0599 5.88572,4.13306 3.9321,3.29841 4.39835,3.67271 4.82602,3.87435 0.17266,0.0814 0.2278,0.0901 0.12253,0.0193 -0.76544,-0.51459 -1.81224,-1.37204 -5.2539,-4.30354 -2.64878,-2.25615 -4.09997,-3.42327 -4.47837,-3.6017 -0.49477,-0.23332 -0.68393,-0.2634 -1.6285,-0.25896 -0.90786,0.004 -1.17172,0.0456 -1.75318,0.2743 -1.75495,0.6904 -3.06445,2.07818 -3.4852,3.69354 -0.40786,1.56587 0.0523,3.18179 1.37587,4.83104 0.82581,1.02906 1.40827,2.2139 1.55701,3.16731 0.0645,0.4132 0.13187,0.64803 0.14978,0.52186 0.0179,-0.12618 -0.0184,-0.47517 -0.0808,-0.77555 z m 17.53241,-3.05099 c 1.00957,-0.49393 2.08124,-1.92152 2.26544,-3.01784 0.0341,-0.20284 -0.0446,-0.0613 -0.18268,0.32858 -0.43217,1.22024 -1.26785,2.22816 -2.20809,2.66321 -0.36609,0.16939 -0.66184,0.21432 -1.41077,0.21432 -0.52594,0 -0.84297,0.0321 -0.71247,0.0722 0.50651,0.15552 1.67498,0.0202 2.24857,-0.26046 z m 8.1833,-2.73158 c -0.0325,-0.0812 -0.0566,-0.0571 -0.0615,0.0615 -0.004,0.10729 0.0196,0.16741 0.0535,0.13359 0.0338,-0.0338 0.0374,-0.12161 0.008,-0.19508 z m -0.10088,-0.86045 c -0.0257,-0.0257 -0.32538,0.0472 -0.66603,0.16198 -1.16948,0.39397 -2.44168,0.2179 -3.35443,-0.46424 -0.31756,-0.23733 -0.34418,-0.24466 -0.17211,-0.0474 0.61217,0.7018 2.12284,1.00628 3.37347,0.67991 0.78186,-0.20403 0.74574,-0.20714 0.76392,0.0658 0.0118,0.17655 0.0252,0.16276 0.0585,-0.0602 0.0238,-0.15907 0.0223,-0.31021 -0.003,-0.33588 z m -5.68802,-0.62375 c -0.0455,-0.78584 -0.33058,-1.60931 -0.73047,-2.10995 -0.0894,-0.11196 0.004,0.1267 0.20857,0.53035 0.31034,0.61364 0.37893,0.86799 0.41853,1.55216 0.026,0.45004 0.0703,0.81825 0.0983,0.81825 0.028,0 0.0303,-0.35586 0.005,-0.79081 z m -13.82261,-0.16365 c 0,-0.0211 -0.0802,-0.10128 -0.17812,-0.17811 -0.16143,-0.1266 -0.16503,-0.123 -0.0384,0.0384 0.13296,0.16954 0.21655,0.22345 0.21655,0.13968 z m 14.96183,0.005 c 0,-0.0182 -0.12596,-0.14419 -0.2799,-0.2799 l -0.2799,-0.24675 0.24675,0.2799 c 0.23063,0.2616 0.31305,0.32657 0.31305,0.24674 z m -0.61069,-0.78111 c -0.0599,-0.11196 -0.13184,-0.20356 -0.15983,-0.20356 -0.028,0 -0.002,0.0916 0.058,0.20356 0.0599,0.11196 0.13184,0.20357 0.15983,0.20357 0.028,0 0.002,-0.0916 -0.058,-0.20357 z m -19.24512,-0.57358 c 0.13968,-0.1222 -0.19161,-0.009 -0.35375,0.12118 -0.18629,0.14925 -0.18304,0.15137 0.0569,0.0371 0.13995,-0.0666 0.27353,-0.13788 0.29686,-0.15829 z m 3.41986,0.16922 c -0.1141,-0.18461 -1.39413,-0.51171 -1.97172,-0.50384 -0.31599,0.004 -0.75773,0.0722 -0.98164,0.15094 -0.22392,0.0787 -0.29263,0.11737 -0.15268,0.0859 0.13995,-0.0315 0.59797,-0.0776 1.01782,-0.10253 0.69565,-0.0413 1.3238,0.0934 2.11796,0.45425 0.0173,0.008 0.004,-0.0303 -0.0297,-0.0847 z m 19.76928,-0.30536 c 0.23792,-0.108 0.43257,-0.22332 0.43257,-0.25628 0,-0.17913 -0.47275,-0.93531 -0.99787,-1.59612 -0.57473,-0.72323 -1.16963,-1.23653 -3.46507,-2.98977 -1.00148,-0.76493 -1.06028,-0.79489 -1.19593,-0.60938 -0.0785,0.1073 -0.14265,0.22504 -0.14265,0.26164 0,0.14485 0.4616,0.46898 1.29443,0.90892 1.10899,0.58584 1.39702,0.93365 1.60431,1.93728 0.19305,0.93466 0.66663,1.93444 1.08181,2.28379 0.37384,0.31456 0.78803,0.33243 1.3884,0.0599 z m -4.61187,-0.7661 c -0.13361,-0.39186 -0.24411,-0.81495 -0.24555,-0.9402 -0.002,-0.17969 -0.15816,-0.30605 -0.74002,-0.59907 -1.21433,-0.61153 -1.743,-1.13404 -2.0673,-2.04323 -0.0807,-0.2263 -0.13949,-0.30245 -0.14154,-0.18341 -0.006,0.33565 0.56858,1.22871 1.03439,1.60832 0.23981,0.19544 0.74037,0.52195 1.11236,0.72558 0.59799,0.32735 0.68439,0.4131 0.74573,0.74008 0.0766,0.40818 0.46205,1.48828 0.51281,1.43686 0.0176,-0.0178 -0.0773,-0.35308 -0.21088,-0.74493 z m -2.38558,-1.31878 c 0,-0.0449 -2.20853,-1.94333 -10.10089,-8.68261 -3.60102,-3.07491 -4.41696,-3.83921 -4.7174,-4.41891 l -0.14134,-0.27271 0.58414,-0.0637 c 0.99842,-0.10882 1.0171,-0.12613 0.15157,-0.14041 -0.96728,-0.016 -0.97808,-0.001 -0.54233,0.74949 0.41451,0.71396 0.69238,0.96391 7.13266,6.41578 3.16285,2.67744 6.16285,5.22417 6.66667,5.6594 0.94001,0.81204 0.96692,0.83301 0.96692,0.75363 z m -0.40454,-4.50301 c 0.1752,-0.31044 0.28065,-0.59875 0.23432,-0.64067 -0.0463,-0.0419 -1.75599,-1.34743 -3.79925,-2.90112 -2.04326,-1.5537 -3.86582,-2.96742 -4.05014,-3.14161 -0.48644,-0.45968 -0.84157,-1.25998 -0.94169,-2.12209 l -0.0861,-0.74168 0.0364,0.77458 c 0.0438,0.93061 0.32826,1.56205 0.98718,2.19105 0.39911,0.38099 2.78467,2.24048 6.18892,4.82413 0.69818,0.52988 1.3346,1.01347 1.41428,1.07465 0.12272,0.0942 0.10228,0.20315 -0.13363,0.71247 -0.17616,0.3803 -0.29206,0.82564 -0.31541,1.21192 l -0.0369,0.61069 0.0917,-0.64393 c 0.0566,-0.39735 0.21373,-0.86008 0.41031,-1.20839 z m 8.96876,-6.83891 c 1.28958,-0.33277 2.82235,-1.21631 3.64952,-2.10369 0.23448,-0.25155 0.0605,-0.14429 -0.50891,0.31382 -0.93604,0.75304 -2.29612,1.45723 -3.32258,1.72031 -0.73503,0.18839 -2.65199,0.21506 -3.5544,0.0495 -1.35983,-0.24955 -1.95702,-0.60489 -7.29605,-4.34135 -0.43384,-0.30362 -0.7888,-0.52962 -0.7888,-0.50221 0,0.0742 5.05875,3.66833 5.74417,4.08107 0.68263,0.41106 1.88099,0.83282 2.75743,0.97046 0.86077,0.13519 2.40679,0.0477 3.31962,-0.18786 z m -21.23598,-2.35203 c 0.25936,-0.11145 -0.008,-0.11145 -0.35623,0 -0.20456,0.0655 -0.21454,0.0821 -0.0509,0.0845 0.11196,0.002 0.29516,-0.0364 0.40712,-0.0845 z m 0.66158,-0.20356 c 0.18605,-0.12023 0.0254,-0.12023 -0.25445,0 -0.13423,0.0577 -0.15156,0.0894 -0.0509,0.0931 0.084,0.003 0.22138,-0.0388 0.30535,-0.0931 z m 27.54834,-1.02803 0.34392,-0.21255 -0.30555,-0.34801 c -0.53931,-0.61424 -0.66155,-0.94133 -0.66155,-1.77019 0,-0.86038 0.14274,-1.22108 0.74509,-1.88281 l 0.37046,-0.40699 -0.3906,0.3561 c -0.5008,0.45656 -0.78344,1.01036 -0.85067,1.66679 -0.0693,0.67666 0.0905,1.24429 0.53011,1.88344 l 0.35476,0.51573 -0.32699,0.1691 c -0.17984,0.093 -0.83248,0.34903 -1.4503,0.56895 -0.61782,0.21993 -1.15928,0.43516 -1.20324,0.4783 -0.14607,0.14333 2.49459,-0.80157 2.84456,-1.01786 z m -26.54031,0.55352 c 0.88086,-0.48904 2.20095,-1.816 2.63896,-2.65268 0.38591,-0.73718 0.73251,-1.69764 0.7229,-2.00325 -0.004,-0.11719 -0.0726,0.0388 -0.1532,0.34673 -0.0806,0.30789 -0.33539,0.94514 -0.56626,1.41611 -0.54131,1.10425 -1.62628,2.23217 -2.7344,2.84261 -0.41985,0.23129 -0.72196,0.42113 -0.67136,0.42187 0.0506,7.1e-4 0.39411,-0.16639 0.76336,-0.37139 z m 2.11493,0.0483 c -0.0325,-0.0812 -0.0566,-0.0571 -0.0615,0.0615 -0.004,0.10729 0.0196,0.16741 0.0535,0.13358 0.0338,-0.0338 0.0374,-0.1216 0.008,-0.19508 z m 0.2327,-0.54071 c 0,-0.056 -0.0444,-0.0331 -0.0987,0.0509 -0.0543,0.084 -0.0987,0.19847 -0.0987,0.25445 0,0.056 0.0444,0.0331 0.0987,-0.0509 0.0543,-0.084 0.0987,-0.19847 0.0987,-0.25445 z m 14.02347,-0.022 c -0.15394,-0.0233 -0.40585,-0.0233 -0.55979,0 -0.15395,0.0233 -0.028,0.0424 0.2799,0.0424 0.30788,0 0.43384,-0.0191 0.27989,-0.0424 z m -1.34507,-0.1857 c -0.27796,-0.0762 -0.52344,-0.12055 -0.54551,-0.0985 -0.0549,0.0549 0.59579,0.23692 0.84733,0.23702 0.11196,4e-5 -0.0239,-0.0623 -0.30182,-0.13854 z m 2.23566,0.055 c 0.25936,-0.11145 -0.008,-0.11145 -0.35624,0 -0.20455,0.0655 -0.21453,0.0821 -0.0509,0.0845 0.11196,0.002 0.29517,-0.0364 0.40713,-0.0845 z m -14.20274,-0.86423 0.35196,-0.40804 -0.35366,0.32774 c -0.19452,0.18026 -0.43505,0.47797 -0.53452,0.66158 -0.17445,0.32202 -0.17439,0.32487 0.002,0.0803 0.1004,-0.13945 0.34094,-0.43716 0.53452,-0.66158 z m 11.29349,0.62202 c -0.1035,-0.0943 -1.11111,-0.57025 -1.11111,-0.52481 0,0.062 0.93011,0.55211 1.06022,0.55872 0.0513,0.003 0.0742,-0.0127 0.0509,-0.0339 z m 3.92634,-0.16375 c 0.0357,-0.0577 -0.005,-0.0748 -0.0958,-0.04 -0.17633,0.0677 -0.20859,0.14062 -0.0622,0.14062 0.0527,0 0.12376,-0.0453 0.15796,-0.10062 z m 1.23068,-0.93828 c 0.24719,-0.26351 0.44926,-0.53832 0.44905,-0.61069 -2e-4,-0.0724 -0.0842,0.006 -0.18659,0.17376 -0.18151,0.29763 -0.62943,0.72981 -1.13859,1.09858 -0.24238,0.17555 -0.23903,0.17555 0.0873,0 0.18666,-0.1004 0.54162,-0.39815 0.78881,-0.66165 z m -6.57347,0.34653 c -0.68668,-0.46626 -2.69549,-2.02423 -3.49723,-2.71234 -0.49599,-0.42569 -1.09141,-0.90403 -1.32315,-1.06297 -1.11944,-0.76776 -2.52517,-1.27159 -3.89392,-1.39562 -0.74536,-0.0675 -0.75126,-0.0662 -0.73954,0.17496 0.009,0.18673 0.023,0.19971 0.0601,0.056 0.0429,-0.16628 0.11787,-0.17909 0.67522,-0.11539 0.94386,0.10788 2.07867,0.41962 2.785,0.76506 0.61754,0.30202 1.38631,0.8691 3.43991,2.53746 0.98487,0.80012 2.5764,1.94186 2.69165,1.93096 0.031,-0.003 -0.0581,-0.0831 -0.19801,-0.17812 z m -15.04254,-0.22186 c 1.31274,-0.40546 2.42514,-1.51787 2.83061,-2.8306 0.23117,-0.74846 0.27193,-1.65012 0.0745,-1.64858 -0.22029,0.002 -1.16407,0.47857 -1.77704,0.89787 -1.17612,0.80451 -2.89069,2.75126 -3.13019,3.55406 -0.0663,0.2221 -0.047,0.22901 0.64029,0.22901 0.41895,0 0.97562,-0.0825 1.36181,-0.20176 z m 9.19786,-0.39641 c -0.0632,-0.10218 -0.87154,-0.32132 -1.14696,-0.31092 -0.10116,0.004 0.11378,0.0891 0.47764,0.18939 0.36387,0.10035 0.67574,0.18883 0.69303,0.19662 0.0173,0.008 0.007,-0.026 -0.0237,-0.0751 z m -2.29781,-0.16938 c 0.52944,-0.1402 0.53549,-0.14528 0.11156,-0.0938 -0.24653,0.03 -0.52134,0.0972 -0.61069,0.14945 -0.21439,0.12535 -0.16281,0.11959 0.49913,-0.0557 z m 24.02035,-0.44782 c 0,-0.0527 -0.048,-0.12544 -0.10665,-0.16169 -0.14939,-0.0923 -0.42862,0.0307 -0.35181,0.15496 0.0801,0.12954 0.45846,0.13509 0.45846,0.007 z m -8.0856,-2.21975 c 0.0899,-0.23791 0.21697,-0.43075 0.28231,-0.42853 0.0653,0.002 0.37072,0.13962 0.67861,0.30532 0.30789,0.16571 0.6514,0.30021 0.76336,0.29889 0.11196,-0.001 -0.0638,-0.11231 -0.39053,-0.24666 -0.32675,-0.13435 -0.68172,-0.32357 -0.78881,-0.42049 -0.18481,-0.16725 -0.20511,-0.16679 -0.39936,0.009 -0.21091,0.19087 -0.55223,1.15395 -0.65416,1.8458 -0.0374,0.2538 0.0133,0.15872 0.14362,-0.26918 0.1108,-0.36386 0.27503,-0.85623 0.36496,-1.09414 z m -17.28953,-0.30534 c -0.0256,-0.098 -0.0466,-0.0178 -0.0466,0.17812 0,0.19593 0.021,0.27608 0.0466,0.17811 0.0256,-0.098 0.0256,-0.25827 0,-0.35623 z m 21.06504,0.16491 c 0.53022,-0.32182 1.02153,-0.94804 1.26267,-1.60939 0.13875,-0.38052 0.33095,-0.69773 0.49245,-0.81276 0.14569,-0.10376 0.67711,-0.55913 1.18093,-1.01194 0.50381,-0.45281 0.97823,-0.82424 1.05427,-0.8254 0.13877,-0.002 1.29743,0.87472 1.53649,1.16276 0.10703,0.12897 0.022,0.28185 -0.52565,0.94488 -0.35934,0.43505 -0.80729,1.00897 -0.99545,1.27537 -0.24772,0.35073 -0.44333,0.51161 -0.70903,0.58316 -0.20181,0.0543 -0.45597,0.16391 -0.56481,0.2435 -0.13166,0.0963 0.0136,0.0754 0.43407,-0.0625 0.55432,-0.18175 0.66467,-0.26303 0.89833,-0.66174 0.14651,-0.25 0.61004,-0.8408 1.03006,-1.31289 l 0.76369,-0.85835 -0.39229,-0.37028 c -0.60169,-0.56795 -1.36309,-1.149585 -1.50488,-1.149585 -0.0701,0 -0.51408,0.377865 -0.98668,0.839695 -0.4726,0.46183 -1.04801,0.9542 -1.27869,1.09415 -0.34212,0.20756 -0.43107,0.32651 -0.4827,0.64547 -0.14605,0.90222 -0.69763,1.55873 -1.64704,1.96037 -0.45214,0.19128 -0.51175,0.23713 -0.24293,0.18688 0.19593,-0.0366 0.50067,-0.15425 0.67719,-0.2614 z m -1.21154,-2.35321 c -0.0233,-0.07 -0.12638,-0.12722 -0.229,-0.12722 -0.10263,0 -0.20569,0.0573 -0.22901,0.12722 -0.0269,0.0806 0.0571,0.12723 0.22901,0.12723 0.17189,0 0.25586,-0.0466 0.229,-0.12723 z"
             style="fill:#134f3a;fill-opacity:1;stroke:#134f3a;stroke-width:0.14599586;stroke-miterlimit:4;stroke-dasharray:none;stroke-opacity:1" />
          <path
             inkscape:connector-curvature="0"
             id="path1582"
             d="m 199.42258,125.9917 c -0.35454,-0.27888 -0.85316,-1.32075 -1.02343,-2.13845 -0.24228,-1.16351 -0.56579,-1.56525 -1.73258,-2.15158 -0.689,-0.34623 -1.18159,-0.67066 -1.17921,-0.77665 8.6e-4,-0.0382 0.0435,-0.13569 0.0948,-0.21672 0.0745,-0.11783 0.33296,0.0349 1.29156,0.76336 1.65279,1.25601 2.66275,2.11966 3.1309,2.67736 0.4405,0.52476 1.07919,1.48306 1.07919,1.61924 0,0.14683 -0.69773,0.43087 -1.05843,0.43087 -0.18704,0 -0.45728,-0.093 -0.60276,-0.20743 z"
             style="fill:#134f3a;fill-opacity:1;stroke:#134f3a;stroke-width:0.03873855;stroke-miterlimit:4;stroke-dasharray:none;stroke-opacity:1" />
          <path
             inkscape:connector-curvature="0"
             id="path1588"
             d="m 199.83825,126.25063 c -0.19609,-0.0393 -0.39345,-0.15331 -0.55099,-0.31821 -0.15111,-0.15816 -0.32404,-0.42094 -0.47506,-0.72187 -0.244,-0.48622 -0.47338,-1.17685 -0.50764,-1.52843 -0.007,-0.0717 -0.0149,-0.14866 -0.0176,-0.17093 -0.008,-0.0666 0.0245,0.0577 0.0803,0.30668 0.10367,0.46195 0.23553,0.84827 0.43614,1.27778 0.23642,0.50615 0.48336,0.85431 0.68809,0.97012 0.23486,0.13284 0.47599,0.17866 0.72012,0.13683 0.38741,-0.0664 0.8598,-0.28481 0.89181,-0.41236 0.0149,-0.0595 -0.0712,-0.22813 -0.29387,-0.57545 -0.19999,-0.31194 -0.56667,-0.81682 -0.76684,-1.05587 -0.49728,-0.59385 -1.52868,-1.47468 -3.27218,-2.7945 -0.66918,-0.50657 -0.97338,-0.70267 -1.10473,-0.71217 -0.0461,-0.003 -0.0554,-10e-4 -0.0802,0.0198 -0.0357,0.03 -0.11131,0.18138 -0.11733,0.2348 -0.006,0.0532 0.0193,0.0918 0.11237,0.17126 0.18018,0.15382 0.51948,0.35748 1.06052,0.63657 0.5944,0.3066 0.8286,0.46155 1.08521,0.71795 0.0779,0.0779 0.14169,0.14597 0.14169,0.15134 0,0.005 -0.0538,-0.0439 -0.11954,-0.10953 -0.17195,-0.17157 -0.37055,-0.32087 -0.61366,-0.4613 -0.0908,-0.0524 -0.41189,-0.21462 -0.55327,-0.27944 -0.20024,-0.0918 -0.67789,-0.37461 -0.87714,-0.51933 -0.0346,-0.0252 -0.096,-0.0732 -0.13646,-0.10679 -0.1153,-0.0958 -0.14359,-0.17739 -0.10097,-0.2913 0.0229,-0.0613 0.11801,-0.20591 0.14853,-0.22591 0.0522,-0.0342 0.15387,0.005 0.34367,0.13161 0.17653,0.118 1.84434,1.39329 2.35864,1.80354 0.92759,0.73991 1.37383,1.15359 1.78134,1.65138 0.49225,0.60131 1.02391,1.4239 1.05797,1.63692 l 0.005,0.0341 -0.0707,0.0467 c -0.0877,0.058 -0.35917,0.19223 -0.49989,0.24722 -0.12318,0.0481 -0.26697,0.0893 -0.37939,0.1085 -0.0966,0.0165 -0.29262,0.0167 -0.37442,2.6e-4 z"
             style="fill:#134f3a;fill-opacity:1;stroke:#134f3a;stroke-width:0.00342403;stroke-miterlimit:4;stroke-dasharray:none;stroke-opacity:1" />
          <path
             inkscape:connector-curvature="0"
             id="path1592"
             d="m 193.27997,119.52109 c 0,-0.003 0.0124,-0.0293 0.0275,-0.0592 0.1015,-0.20106 0.19742,-0.46751 0.19742,-0.54839 0,-0.0396 -10e-4,-0.0409 -0.17993,-0.17193 -0.71363,-0.52368 -6.45787,-4.92805 -7.34096,-5.62865 -0.19674,-0.15609 -0.39889,-0.35228 -0.52518,-0.50969 -0.24273,-0.30254 -0.44901,-0.69111 -0.55877,-1.05256 -0.0576,-0.18986 -0.11314,-0.46089 -0.10071,-0.49195 0.003,-0.007 0.005,-0.002 0.005,0.01 0.002,0.0452 0.0473,0.24861 0.0861,0.3826 0.11816,0.40799 0.3204,0.79682 0.59142,1.13708 0.10689,0.13421 0.38873,0.41879 0.51073,0.51571 0.047,0.0373 0.50649,0.38916 1.02108,0.78181 0.51458,0.39265 2.04687,1.56199 3.40509,2.59852 1.35821,1.03654 2.61521,1.9956 2.79334,2.13125 0.17812,0.13566 0.33285,0.25647 0.34384,0.26847 0.0226,0.0247 0.0216,0.0421 -0.008,0.13828 -0.0364,0.11783 -0.0794,0.20902 -0.15378,0.32584 -0.0419,0.0658 -0.0828,0.13274 -0.091,0.14883 -0.0135,0.0265 -0.0235,0.0369 -0.0235,0.0245 z"
             style="fill:#134f3a;fill-opacity:1;stroke:#134f3a;stroke-width:0.00342403;stroke-miterlimit:4;stroke-dasharray:none;stroke-opacity:1" />
          <path
             inkscape:connector-curvature="0"
             id="path1600"
             d="m 190.62721,124.72465 c -0.0838,-0.0735 -0.64845,-0.56038 -1.23537,-1.06522 -0.94242,-0.81061 -2.17089,-1.85859 -3.76172,-3.20903 -0.64924,-0.55114 -1.26077,-1.07078 -1.44629,-1.22896 l -0.0889,-0.0758 v -1.45893 -1.45894 h 0.22027 0.22027 l 0.30024,0.25496 c 0.16513,0.14023 0.7186,0.61008 1.22993,1.04412 0.82657,0.70162 1.19314,1.01268 2.07812,1.76344 0.1332,0.113 0.53838,0.45679 0.90039,0.76398 0.36201,0.30719 0.83311,0.70695 1.04688,0.88834 0.56983,0.48353 1.46926,1.2475 1.94726,1.65399 0.51287,0.43614 1.10465,0.93919 1.26132,1.0722 0.0642,0.0545 0.11565,0.0973 0.11426,0.0951 -0.008,-0.0127 -1.13766,-0.99135 -1.96542,-1.70245 -0.99906,-0.85825 -2.05138,-1.75596 -3.98828,-3.40232 -1.23959,-1.05365 -1.24624,-1.0593 -2.17372,-1.84905 l -0.68154,-0.58032 2.70472,-9.8e-4 c 2.63187,-9.6e-4 2.70493,-7.9e-4 2.71278,0.006 0.004,0.004 0.21022,0.16188 0.45729,0.35086 1.94803,1.48999 3.00825,2.29376 3.0014,2.27544 -0.002,-0.007 -0.0456,-0.0402 -0.15374,-0.11989 -0.14414,-0.10619 -0.51761,-0.38792 -0.89063,-0.67186 -0.32322,-0.24603 -0.57416,-0.43731 -0.75781,-0.57764 -0.10957,-0.0837 -0.25371,-0.19382 -0.32031,-0.24466 -0.18627,-0.14219 -0.75553,-0.57753 -0.88672,-0.67811 -0.0645,-0.0494 -0.18926,-0.14492 -0.27735,-0.21222 -0.0881,-0.0673 -0.16182,-0.12391 -0.16386,-0.12578 -0.002,-0.002 0.008,-0.003 0.0234,-0.003 l 0.0272,1.7e-4 0.26563,0.20296 c 0.14609,0.11162 0.29902,0.22844 0.33984,0.2596 0.0696,0.0531 0.3608,0.2753 0.52734,0.40236 0.0859,0.0656 0.41856,0.31935 0.52735,0.40235 0.0408,0.0311 0.15508,0.11836 0.2539,0.1938 0.0988,0.0755 0.19903,0.15188 0.22266,0.16985 0.0236,0.018 0.0747,0.0569 0.11346,0.0864 0.0388,0.0296 0.14309,0.10915 0.23181,0.17682 0.0887,0.0677 0.19351,0.14766 0.23284,0.17774 0.0393,0.0301 0.10377,0.0793 0.14319,0.10928 0.3569,0.27184 0.5473,0.41863 0.60147,0.46372 0.0383,0.0319 0.038,0.0516 -0.003,0.17368 -0.0381,0.1143 -0.074,0.18656 -0.16629,0.33535 -0.0333,0.0537 -0.0664,0.10787 -0.0734,0.12035 -0.0269,0.0477 -0.0154,0.015 0.0242,-0.0685 0.1333,-0.28118 0.20743,-0.51658 0.17455,-0.55433 -0.008,-0.009 -0.008,-0.009 -0.004,-6.9e-4 0.009,0.0178 0.005,0.0687 -0.009,0.12314 -0.0369,0.14328 -0.10112,0.29657 -0.24764,0.59099 -0.17791,0.3575 -0.19642,0.40366 -0.24868,0.62042 -0.0499,0.20704 -0.0766,0.40017 -0.0716,0.51825 0.001,0.0247 0.002,0.017 0.008,-0.0488 0.0194,-0.21501 0.0593,-0.40881 0.12555,-0.60937 0.0881,-0.26682 0.2,-0.49546 0.3664,-0.74889 0.0531,-0.0808 0.0755,-0.12549 0.11193,-0.22272 0.0353,-0.0942 0.0565,-0.18169 0.0499,-0.2062 -0.002,-0.006 -0.0229,-0.0252 -0.0641,-0.0567 -0.33952,-0.25962 -2.8626,-2.18517 -3.21583,-2.45425 -0.1085,-0.0827 -0.19894,-0.15176 -0.20098,-0.15359 -0.002,-0.002 0.92784,-0.003 2.06641,-0.003 l 2.07012,7e-5 0.54101,0.4125 c 0.57763,0.44041 1.17313,0.89544 1.54981,1.18423 l 0.23144,0.17744 v 1.57792 c 0,1.2613 -9.8e-4,1.57733 -0.005,1.57497 -0.003,-0.002 -0.0866,-0.0653 -0.18653,-0.14163 -0.25956,-0.19817 -0.31167,-0.23659 -0.40828,-0.30092 -0.22871,-0.15229 -0.31314,-0.17467 -0.37327,-0.099 -0.0733,0.0923 -0.12397,0.18705 -0.13892,0.25967 -0.009,0.0455 -0.005,0.0725 0.0215,0.12642 0.023,0.0472 0.0341,0.0602 0.0962,0.11229 0.1451,0.12165 0.37853,0.27469 0.69346,0.45465 0.12578,0.0719 0.20724,0.11665 0.25879,0.14223 l 0.042,0.0208 v 1.51083 1.51083 h -0.30631 -0.30632 l -0.0157,-0.0654 c -0.0213,-0.0887 -0.0522,-0.23469 -0.0669,-0.31543 -0.0205,-0.11299 -0.0179,-0.10464 -0.0437,-0.13718 -0.0129,-0.0162 -0.0241,-0.0288 -0.025,-0.028 -8.3e-4,8.4e-4 0.0283,0.12272 0.0647,0.27085 0.0365,0.14813 0.0663,0.27065 0.0663,0.27226 0,0.002 -1.18473,0.003 -2.63276,0.003 h -2.63279 z m 5.1456,-0.53965 c -0.005,-0.008 -0.0807,-0.0664 -0.12511,-0.0963 -0.0835,-0.0563 -0.1313,-0.0823 -0.26407,-0.14357 -0.27311,-0.12601 -0.43904,-0.20754 -0.5919,-0.29085 -0.52523,-0.28624 -0.91662,-0.60053 -1.22204,-0.98132 -0.22473,-0.28017 -0.40439,-0.61092 -0.51765,-0.95298 -0.0258,-0.0779 -0.0499,-0.1389 -0.0536,-0.13529 -0.005,0.005 0.0503,0.19519 0.0865,0.29481 0.23803,0.65553 0.7323,1.2065 1.50804,1.68103 0.13399,0.082 0.26399,0.15486 0.42773,0.23985 0.1548,0.0803 0.75165,0.38796 0.75316,0.38818 6.7e-4,9e-5 1.8e-4,-0.002 -10e-4,-0.004 z m -2.3341,-0.39989 c 0,-7e-4 -0.005,-0.006 -0.0107,-0.0107 l -0.0107,-0.009 0.009,0.0107 c 0.009,0.01 0.012,0.0125 0.012,0.009 z"
             style="fill:#134f3a;fill-opacity:1;stroke:#134f3a;stroke-width:0.00148675;stroke-miterlimit:4;stroke-dasharray:none;stroke-opacity:1" />
          <path
             inkscape:connector-curvature="0"
             id="path1602"
             d="m 192.78051,123.22433 c -0.0344,-0.0296 -0.20488,-0.17485 -0.37891,-0.32286 -0.17402,-0.14802 -0.45175,-0.38427 -0.61718,-0.52499 -0.71302,-0.60652 -1.32668,-1.12745 -3.01172,-2.55658 -0.96804,-0.82102 -1.34902,-1.14432 -2.77344,-2.35352 -0.73262,-0.62192 -1.36009,-1.15459 -1.39439,-1.1837 l -0.0624,-0.0529 0.0267,-0.001 c 0.0187,-8.2e-4 0.0286,4.8e-4 0.0331,0.004 0.0549,0.0473 1.8806,1.6004 2.81106,2.39135 2.06536,1.7557 3.0432,2.58988 4.05664,3.46064 0.66542,0.57173 1.37891,1.18852 1.37891,1.19202 0,0.005 -0.0118,-0.004 -0.0684,-0.0526 z"
             style="fill:#134f3a;fill-opacity:1;stroke:#134f3a;stroke-width:0.00148675;stroke-miterlimit:4;stroke-dasharray:none;stroke-opacity:1" />
          <path
             inkscape:connector-curvature="0"
             id="path1604"
             d="m 192.92351,120.6183 c -0.002,-0.0919 0.0563,-0.38699 0.11172,-0.57019 0.0246,-0.0814 0.0769,-0.19901 0.1775,-0.39924 0.046,-0.0917 0.0637,-0.12328 0.0678,-0.12168 0.004,0.002 -2.3e-4,0.013 -0.02,0.0496 -0.17699,0.32779 -0.29086,0.6786 -0.33112,1.02012 -0.005,0.0418 -0.006,0.0441 -0.006,0.0214 z"
             style="fill:#134f3a;fill-opacity:1;stroke:#134f3a;stroke-width:0.00148675;stroke-miterlimit:4;stroke-dasharray:none;stroke-opacity:1" />
          <path
             inkscape:connector-curvature="0"
             id="path1606"
             d="m 200.01265,115.45967 c -1.99697,-0.0546 -3.87639,-0.63868 -5.52734,-1.71785 -0.13216,-0.0864 -0.32716,-0.22276 -0.78906,-0.55182 -0.353,-0.25148 -1.07132,-0.76193 -1.64453,-1.16863 l -0.40625,-0.28823 -0.002,-1.54158 c -0.002,-1.53473 -0.002,-1.54152 0.0135,-1.53084 0.009,0.006 0.20978,0.14995 0.44729,0.3201 1.46518,1.04968 2.91684,2.07217 3.56463,2.51077 0.0816,0.0553 0.1959,0.13277 0.25391,0.1722 0.26385,0.17935 0.4206,0.27277 0.65234,0.3888 0.59955,0.30019 1.41371,0.58513 2.04688,0.71637 0.57915,0.12005 1.07585,0.15777 1.75,0.13288 0.81926,-0.0302 1.53178,-0.12691 2.08203,-0.28247 1.02202,-0.28895 2.24187,-0.94193 3.04405,-1.62947 0.12042,-0.10322 0.53633,-0.50921 0.52206,-0.50962 -0.0135,-3.9e-4 -0.12234,0.0905 -0.33174,0.27717 -0.22838,0.20359 -0.37315,0.32593 -0.52343,0.44233 -0.42452,0.3288 -0.83333,0.58291 -1.33203,0.82794 -0.40127,0.19716 -0.74292,0.33454 -1.26172,0.50736 -0.79129,0.26358 -0.95161,0.28392 -2.24219,0.28449 -0.80901,3.6e-4 -1.00986,-0.007 -1.40234,-0.0511 -1.13924,-0.12801 -2.01045,-0.5186 -3.7461,-1.67947 -0.49952,-0.3341 -0.88591,-0.60243 -1.90625,-1.32383 -0.61978,-0.4382 -1.14001,-0.80295 -1.53906,-1.07909 l -0.0898,-0.0622 -0.002,-1.85766 -0.002,-1.85765 0.0215,0.0153 c 0.0209,0.0149 0.32719,0.27015 0.89747,0.74791 1.16127,0.97288 2.16549,1.73206 2.97364,2.24803 0.0964,0.0616 0.0346,0.0151 -0.20703,-0.15556 -0.52085,-0.36789 -0.684,-0.4901 -1.53711,-1.15149 -0.2084,-0.16156 -0.44746,-0.34626 -0.53125,-0.41044 -0.0838,-0.0642 -0.28946,-0.23289 -0.45703,-0.3749 -0.61769,-0.52345 -0.97118,-0.8226 -1.06446,-0.90083 l -0.0957,-0.0803 v -1.54257 c 0,-0.84841 0.002,-1.54256 0.005,-1.54256 0.0126,0 0.29618,0.17739 0.49,0.30649 0.37815,0.25187 0.64596,0.45752 1.10672,0.84983 0.25012,0.21295 2.19129,1.85786 2.40235,2.03569 1.35043,1.13784 1.93028,1.5309 2.41251,1.63538 0.17694,0.0383 0.43835,0.0608 0.5992,0.0514 0.47172,-0.0274 1.04805,-0.20429 1.37488,-0.42192 0.17505,-0.11655 0.21312,-0.15821 0.29254,-0.32016 0.0965,-0.19669 0.18376,-0.47738 0.28184,-0.90625 0.13545,-0.59231 0.23997,-0.94898 0.38461,-1.3125 0.15299,-0.38449 0.333,-0.71367 0.54599,-0.9984 0.12289,-0.16428 0.18877,-0.24079 0.33352,-0.38738 0.2519,-0.25509 0.52392,-0.4655 0.87541,-0.67712 0.0639,-0.0384 0.14825,-0.0966 0.1875,-0.12927 0.12629,-0.10504 0.28244,-0.27772 0.3278,-0.36252 0.007,-0.0129 0.0355,-0.0758 0.0636,-0.13988 0.0907,-0.20678 0.22196,-0.41888 0.36911,-0.5964 0.0872,-0.10521 0.28395,-0.2955 0.39306,-0.38018 0.0493,-0.03827 0.13134,-0.09722 0.18229,-0.130979 l 0.0926,-0.06139 1.50111,0.0036 c 0.82561,0.002 1.51869,0.0036 1.54018,0.0035 0.0215,-3.9e-5 1.73359,-0.0015 3.80469,-0.0032 l 3.76562,-0.0031 0.0241,0.03293 c 0.27489,0.375429 0.46242,0.809659 0.53383,1.236059 0.0301,0.17955 0.0358,0.25471 0.0353,0.46093 -5.7e-4,0.20998 -0.01,0.31258 -0.0434,0.48438 -0.0798,0.40745 -0.26236,0.79137 -0.52556,1.10547 -0.0342,0.0408 -0.11517,0.13049 -0.17992,0.19926 -0.11259,0.11959 -0.45791,0.49272 -0.67178,0.72587 -0.25989,0.28333 -0.4358,0.4911 -0.53763,0.63502 -0.0997,0.14094 -0.15449,0.27542 -0.14225,0.34934 0.007,0.0411 0.0108,0.0483 0.0696,0.12447 0.27099,0.3513 0.44306,0.76974 0.50972,1.23948 0.0109,0.0772 0.0138,0.14843 0.0135,0.33984 -3.7e-4,0.26653 -0.01,0.3551 -0.0591,0.57309 -0.13801,0.6063 -0.50984,1.16348 -1.02271,1.53254 -0.1539,0.11075 -0.39183,0.24469 -0.54235,0.30531 -0.0352,0.0142 -0.0644,0.0358 -0.11981,0.0887 -0.10376,0.099 -0.17839,0.20183 -0.24902,0.34299 -0.49882,0.99691 -1.21701,1.6251 -2.39321,2.09332 -0.31234,0.12433 -0.55163,0.20504 -1.14004,0.3845 -0.35459,0.10815 -0.4241,0.13237 -0.57362,0.19987 -0.21413,0.0967 -0.36613,0.19923 -0.54838,0.37006 -0.18728,0.17553 -0.31905,0.29264 -0.48466,0.43071 -1.71842,1.43266 -3.86047,2.26223 -6.14002,2.3779 -0.16569,0.008 -0.62909,0.0151 -0.77344,0.0111 z m 6.82293,-5.46348 c 0.20416,-0.0801 0.33404,-0.12466 0.64192,-0.2201 0.31516,-0.0977 0.36286,-0.11408 0.70363,-0.24154 0.41917,-0.15678 0.80277,-0.31121 0.98387,-0.39608 0.0887,-0.0416 0.26829,-0.15032 0.3125,-0.18924 0.0187,-0.0164 -0.0644,0.0213 -0.26172,0.11898 -0.46977,0.23248 -0.91677,0.4091 -1.58594,0.62664 -0.42133,0.13698 -0.71395,0.24463 -0.91016,0.33485 -0.0828,0.0381 -0.0209,0.0202 0.1159,-0.0335 z m -8.09832,-0.8654 c -0.01,-0.002 -0.0255,-0.002 -0.0351,0 -0.01,0.002 -0.002,0.003 0.0176,0.003 0.0193,0 0.0272,-0.002 0.0176,-0.003 z m 0.20279,-3e-4 c -0.0313,-10e-4 -0.0806,-10e-4 -0.10938,0 -0.0288,0.002 -0.003,0.003 0.057,0.003 0.0602,0 0.0837,-10e-4 0.0524,-0.003 z m 0.74316,-0.0927 c 0.12102,-0.0272 0.36344,-0.0931 0.37121,-0.10085 0.008,-0.008 -0.018,-0.003 -0.14876,0.0307 -0.0744,0.019 -0.17768,0.0435 -0.2296,0.0544 -0.0942,0.0198 -0.13606,0.032 -0.13606,0.0398 0,0.007 0.0157,0.005 0.14321,-0.0241 z m -1.63481,0.008 c -0.0813,-0.0353 -0.6292,-0.18209 -0.63985,-0.17144 -0.007,0.007 0.32027,0.10583 0.47523,0.14312 0.0537,0.0129 0.11169,0.027 0.12887,0.0312 0.0485,0.012 0.0666,0.0105 0.0357,-0.003 z m 11.52899,-0.1998 c 0.002,-0.0115 -0.1093,-0.14257 -0.27863,-0.32757 -0.15993,-0.17474 -0.30134,-0.36886 -0.40647,-0.55801 -0.14768,-0.26568 -0.26071,-0.65911 -0.29035,-1.01064 -0.0128,-0.15215 -0.005,-0.43226 0.0155,-0.5732 0.0837,-0.56848 0.32312,-1.04504 0.74289,-1.47848 0.0995,-0.10272 0.10445,-0.10899 0.0408,-0.0515 -0.20475,0.18508 -0.41081,0.46166 -0.54747,0.73483 -0.14093,0.2817 -0.22489,0.56008 -0.264,0.87528 -0.0162,0.13053 -0.0184,0.44264 -0.004,0.56612 0.0631,0.54073 0.26353,1.01918 0.59971,1.43134 0.076,0.0932 0.37258,0.40903 0.38134,0.40612 0.005,-0.002 0.009,-0.008 0.0107,-0.0143 z m -12.54521,-0.1199 c 0,-0.006 -0.079,-0.0444 -0.23267,-0.11407 -0.0761,-0.0345 -0.23769,-0.11348 -0.35901,-0.17554 -0.12133,-0.0621 -0.22329,-0.11274 -0.22657,-0.11261 -0.0218,8.3e-4 0.48274,0.25752 0.67763,0.34475 0.14616,0.0654 0.14062,0.0632 0.14062,0.0575 z m 4.71485,-0.64481 c 0.38312,-0.2845 0.67947,-0.6023 0.83224,-0.89249 0.022,-0.0419 0.0383,-0.0761 0.0361,-0.0761 -0.002,0 -0.0367,0.0519 -0.0767,0.11524 -0.10546,0.16721 -0.19878,0.28751 -0.31857,0.41065 -0.1755,0.18043 -0.36486,0.34549 -0.59626,0.51975 -0.059,0.0444 -0.10728,0.0825 -0.10728,0.0845 0,0.005 0.10772,-0.0704 0.23047,-0.16158 z m 9.7539,-1.26109 c 0.0394,-0.021 0.0478,-0.0347 0.0442,-0.0724 -0.004,-0.0432 -0.0463,-0.10187 -0.0915,-0.12733 -0.0312,-0.0175 -0.0434,-0.0195 -0.12062,-0.0195 -0.0782,0 -0.0899,0.002 -0.13033,0.0218 -0.06,0.0295 -0.0955,0.07 -0.0891,0.10186 0.009,0.043 0.0536,0.0769 0.13287,0.10031 0.0656,0.0193 0.21456,0.0165 0.2545,-0.005 z m -8.4412,-1.10985 c 0.25735,-0.9849 0.42404,-1.43298 0.59795,-1.6074 0.0514,-0.0515 0.0535,-0.0527 0.093,-0.0527 0.0224,0 0.0673,0.009 0.10042,0.0199 0.099,0.0328 0.32948,0.15104 0.5302,0.2721 0.31213,0.18825 0.44111,0.245 0.63231,0.27821 0.05,0.009 0.0948,0.0156 0.0996,0.0154 0.0214,-8.4e-4 -0.057,-0.0329 -0.18655,-0.0762 -0.29026,-0.0971 -0.48635,-0.19656 -0.76137,-0.38619 -0.0625,-0.0431 -0.13723,-0.0991 -0.16608,-0.12454 -0.14902,-0.1312 -0.18315,-0.13214 -0.32273,-0.009 -0.0813,0.0718 -0.12438,0.13184 -0.19788,0.27588 -0.19672,0.38547 -0.40849,1.06609 -0.48154,1.54764 -0.007,0.0447 -0.0142,0.0901 -0.0165,0.10079 -0.003,0.0132 -0.002,0.017 0.004,0.0117 0.004,-0.004 0.0383,-0.12384 0.0754,-0.26563 z m 3.60527,-1.10261 c 0.0988,-0.0197 0.23691,-0.0699 0.34961,-0.12721 0.70777,-0.35971 1.19206,-0.90812 1.41828,-1.6061 0.0153,-0.0473 0.0424,-0.13516 0.0601,-0.19531 0.12695,-0.43055 0.21727,-0.556 0.6095,-0.84656 0.2918,-0.21617 0.39549,-0.29606 0.53125,-0.40927 0.29702,-0.24772 0.65245,-0.57587 0.84631,-0.78135 0.2198,-0.23298 0.51997,-0.49695 0.65986,-0.58028 0.0657,-0.0391 0.0926,-0.0419 0.14731,-0.0151 0.22624,0.11069 1.25406,0.91218 1.60554,1.25199 0.0958,0.0926 0.12139,0.12813 0.11016,0.15278 -0.0198,0.0436 -0.22182,0.28219 -0.51682,0.61064 -0.47477,0.52858 -0.80002,0.9384 -1.12848,1.42187 -0.19019,0.27996 -0.28625,0.40267 -0.40087,0.51212 -0.10785,0.10299 -0.15677,0.12812 -0.26442,0.13581 -0.0783,0.006 -0.20997,0.0405 -0.32097,0.0852 -0.0862,0.0347 -0.26942,0.12368 -0.31715,0.15408 l -0.0259,0.0165 0.0306,-0.005 c 0.0168,-0.003 0.0801,-0.0264 0.14062,-0.0524 0.13839,-0.0593 0.30153,-0.11404 0.45849,-0.15378 0.16694,-0.0423 0.28172,-0.10146 0.38923,-0.20074 0.0756,-0.0698 0.12819,-0.14048 0.23376,-0.31417 0.22247,-0.366 0.47462,-0.71837 0.69984,-0.97797 0.039,-0.045 0.14474,-0.15929 0.23498,-0.25406 0.22314,-0.23437 0.28886,-0.30624 0.58513,-0.63981 0.28358,-0.31929 0.26359,-0.28732 0.22938,-0.36688 -0.0133,-0.031 -0.0516,-0.0711 -0.21244,-0.22265 -0.25748,-0.24259 -0.54073,-0.48993 -0.87942,-0.76789 -0.21166,-0.17372 -0.49942,-0.37662 -0.61905,-0.436493 -0.0872,-0.04367 -0.11265,-0.04268 -0.18693,0.0073 -0.10912,0.0734 -0.38064,0.30527 -0.60679,0.51816 -0.0513,0.0483 -0.17865,0.17747 -0.28297,0.28704 -0.27336,0.28713 -0.38405,0.39269 -0.60138,0.57351 -0.22768,0.18944 -0.44254,0.34871 -0.70937,0.52584 -0.19138,0.12704 -0.23797,0.1637 -0.29948,0.23566 -0.0641,0.075 -0.0912,0.13869 -0.10851,0.25517 -0.0902,0.60706 -0.3298,1.09307 -0.74138,1.50371 -0.30836,0.30766 -0.67664,0.52976 -1.11367,0.67165 -0.0559,0.0181 -0.11035,0.038 -0.12109,0.0442 -0.0184,0.0106 -0.0172,0.011 0.0195,0.006 0.0215,-0.003 0.0654,-0.01 0.0977,-0.0165 z m -0.72724,-2.45655 c 0.0873,-0.0187 0.11531,-0.0648 0.0758,-0.12451 -0.0139,-0.021 -0.0354,-0.0376 -0.0727,-0.0559 -0.0481,-0.0237 -0.0593,-0.026 -0.12353,-0.026 -0.0642,0 -0.0754,0.002 -0.12317,0.0259 -0.0614,0.0302 -0.0917,0.0647 -0.0917,0.10438 0,0.0357 0.0235,0.0573 0.0783,0.0721 0.051,0.0137 0.20098,0.0161 0.25694,0.004 z"
             style="fill:#134f3a;fill-opacity:1;stroke:#134f3a;stroke-width:0.14628784;stroke-miterlimit:4;stroke-dasharray:none;stroke-opacity:1" />
          <path
             inkscape:connector-curvature="0"
             id="path1608"
             d="m 211.2642,106.82305 c -0.0818,-0.0193 -0.14596,-0.0683 -0.14605,-0.11179 -4e-5,-0.0231 0.057,-0.0718 0.1053,-0.0899 0.0545,-0.0204 0.16142,-0.0226 0.20547,-0.004 0.0364,0.0152 0.0767,0.0533 0.0961,0.0911 0.0429,0.0832 -0.007,0.12306 -0.15303,0.12223 -0.043,-2.4e-4 -0.0915,-0.004 -0.10783,-0.007 z"
             style="fill:#134f3a;fill-opacity:1;stroke:#134f3a;stroke-width:0.00297349;stroke-miterlimit:4;stroke-dasharray:none;stroke-opacity:1" />
          <path
             inkscape:connector-curvature="0"
             id="path1610"
             d="m 205.65564,102.12755 c -0.0687,-0.0343 -0.0563,-0.0922 0.0306,-0.14327 0.0981,-0.0576 0.26611,-0.0333 0.31814,0.0461 0.0264,0.0404 0.0164,0.0748 -0.0283,0.0971 -0.0552,0.0276 -0.26518,0.0276 -0.3204,0 z"
             style="fill:#134f3a;fill-opacity:1;stroke:#134f3a;stroke-width:0.00420515;stroke-miterlimit:4;stroke-dasharray:none;stroke-opacity:1" />
        </g>
      </g>
    </g>
  </g>
</svg>
