<?xml version="1.0" encoding="UTF-8" standalone="no"?>
<svg
   viewBox="0 0 166.83501 166.83501"
   version="1.1"
   id="svg836"
   sodipodi:docname="elapid.svg"
   inkscape:version="1.2.2 (b0a84865, 2022-12-01)"
   inkscape:export-filename="elapid.png"
   inkscape:export-xdpi="196.2"
   inkscape:export-ydpi="196.2"
   width="166.83501"
   height="166.83501"
   xmlns:inkscape="http://www.inkscape.org/namespaces/inkscape"
   xmlns:sodipodi="http://sodipodi.sourceforge.net/DTD/sodipodi-0.dtd"
   xmlns="http://www.w3.org/2000/svg"
   xmlns:svg="http://www.w3.org/2000/svg"
   xmlns:rdf="http://www.w3.org/1999/02/22-rdf-syntax-ns#"
   xmlns:cc="http://creativecommons.org/ns#"
   xmlns:dc="http://purl.org/dc/elements/1.1/">
  <metadata
     id="metadata840">
    <rdf:RDF>
      <cc:Work
         rdf:about="">
        <dc:format>image/svg+xml</dc:format>
        <dc:type
           rdf:resource="http://purl.org/dc/dcmitype/StillImage" />
      </cc:Work>
    </rdf:RDF>
  </metadata>
  <sodipodi:namedview
     pagecolor="#ffffff"
     bordercolor="#666666"
     borderopacity="1"
     objecttolerance="10"
     gridtolerance="10"
     guidetolerance="10"
     inkscape:pageopacity="0"
     inkscape:pageshadow="2"
     inkscape:window-width="1961"
     inkscape:window-height="882"
     id="namedview838"
     showgrid="false"
     inkscape:zoom="4"
     inkscape:cx="133.75"
     inkscape:cy="86.25"
     inkscape:window-x="190"
     inkscape:window-y="266"
     inkscape:window-maximized="0"
     inkscape:current-layer="layer1"
     inkscape:pagecheckerboard="true"
     inkscape:showpageshadow="2"
     inkscape:deskcolor="#d1d1d1" />
  <defs
     id="defs817">
    <style
       id="style815">.cls-1{fill:#fff;}.cls-2{fill:#fdd37d;}.cls-3{fill:#f2a640;}.cls-4{fill:#174f3a;}</style>
  </defs>
  <g
     id="Layer_2"
     data-name="Layer 2"
     transform="translate(3.4175,3.4175)">
    <g
       id="logo">
      <g
         inkscape:groupmode="layer"
         id="layer1"
         inkscape:label="circle">
        <circle
           style="fill:#222222;fill-opacity:0;stroke:#333333;stroke-width:6.835;stroke-miterlimit:4;stroke-dasharray:none;stroke-opacity:1"
           id="path853"
           cx="80"
           cy="80"
           r="80" />
      </g>
      <g
         id="symbol-color-white"
         transform="matrix(2.3331177,0,0,2.3331177,-366.54602,-121.40241)">
        <path
           style="fill:#134f3a;fill-opacity:1;stroke:#134f3a;stroke-width:0.00340016;stroke-miterlimit:4;stroke-dasharray:none;stroke-opacity:1"
           d=""
           id="path1584"
           inkscape:connector-curvature="0" />
        <path
           style="fill:#134f3a;fill-opacity:1;stroke:#134f3a;stroke-width:0.00340016;stroke-miterlimit:4;stroke-dasharray:none;stroke-opacity:1"
           d=""
           id="path1586"
           inkscape:connector-curvature="0" />
        <path
           style="fill:#134f3a;fill-opacity:1;stroke:#134f3a;stroke-width:0.00340016;stroke-miterlimit:4;stroke-dasharray:none;stroke-opacity:1"
           d=""
           id="path1590"
           inkscape:connector-curvature="0" />
        <path
           style="fill:#134f3a;fill-opacity:1;stroke:#134f3a;stroke-width:0.00340016;stroke-miterlimit:4;stroke-dasharray:none;stroke-opacity:1"
           d=""
           id="path1594"
           inkscape:connector-curvature="0" />
        <path
           style="fill:#134f3a;fill-opacity:1;stroke:#134f3a;stroke-width:0.00340016;stroke-miterlimit:4;stroke-dasharray:none;stroke-opacity:1"
           d=""
           id="path1596"
           inkscape:connector-curvature="0" />
        <path
           style="fill:#134f3a;fill-opacity:1;stroke:#134f3a;stroke-width:0.00340016;stroke-miterlimit:4;stroke-dasharray:none;stroke-opacity:1"
           d=""
           id="path1598"
           inkscape:connector-curvature="0" />
        <g
           id="g977"
           transform="translate(155.31079,48.039168)">
          <g
             id="color">
            <polygon
               id="polygon939"
               points="19.6933,43.179 24.0053,43.054 30.0813,43.63 48.8353,51.987 58.5053,57.054 58.2553,58.242 44.9513,59.982 24.1773,60.945 11.3803,52.367 13.1303,47.992 15.8183,45.054 "
               style="fill:#ff5b30;fill-opacity:1;stroke:none"
               transform="matrix(0.98408341,0,0,0.9940108,0.93120489,0.36501173)" />
            <path
               id="path941"
               d="m 18.4553,50.754 c 0.006,0.548 0.452,0.989 1,0.989 h 0.011 l 1.132,-0.014 c 3.9774,0.0945 7.93,-0.6507 11.6,-2.187 8.23,-3.493 4.665,-25.974 4.157,-28.931 v -0.133 c 0.0039,-3.0745 2.4955,-5.5657 5.57,-5.569 3.4,0 7.962,2.765 7.962,5.592 0,3.252 -6.458,3.5 -6.523,3.5 -0.5521,0.0125 -0.9896,0.4702 -0.9771,1.0224 0.0014,0.0631 0.0088,0.1259 0.0221,0.1876 3.074,14.237 1.364,29.705 -2.2,31.3 -5.617,2.519 -16.071,2.844 -23.41,2.081 -1.858,-0.193 -3.148,-0.744 -3.833,-1.637 -0.7,-0.916 -0.881,-2.275 -0.561,-4.279 0.005,-0.032 -0.006,-0.061 0,-0.092"
               inkscape:connector-curvature="0"
               style="fill:#ff9030;fill-opacity:1;stroke:none" />
          </g>
          <g
             id="hair" />
          <g
             id="skin" />
          <g
             id="skin-shadow" />
          <g
             id="line">
            <path
               id="path947"
               d="m 32.164434,59.909221 c 2.194,0.007 22.226866,-1.001221 25.295866,-1.092221 0.6551,-0.0245 1.1663,-0.5754 1.1418,-1.2305 -0.016,-0.4279 -0.2613,-0.8141 -0.6418,-1.0105 L 45.306026,50.134568"
               inkscape:connector-curvature="0"
               style="fill:none;stroke:#333333;stroke-width:1.61995;stroke-linecap:round;stroke-linejoin:round;stroke-miterlimit:4;stroke-dasharray:none;stroke-opacity:1"
               sodipodi:nodetypes="ccccc" />
            <path
               id="path949"
               d="m 19.4543,50.74 c 0.368,-0.004 0.7433,-0.0087 1.126,-0.014 3.8491,0.1018 7.6758,-0.6165 11.226,-2.107 7.82,-3.319 3.549,-27.92 3.549,-27.92 v -0.224 c 0,-3.6285 2.9415,-6.57 6.57,-6.57 v 0 c 3.628,0 8.962,2.964 8.962,6.592 0,4.333 -7.5,4.5 -7.5,4.5 2.935,13.6 1.708,30.419 -2.772,32.428 -5.794,2.6 -16.262,2.959 -23.923,2.163 -5.217,-0.542 -5.83,-3.608 -5.278,-7.068"
               inkscape:connector-curvature="0"
               style="fill:none;stroke:#333333;stroke-width:1.9999;stroke-linecap:round;stroke-linejoin:round;stroke-dasharray:none;stroke-opacity:1" />
            <path
               id="path951"
               d="m 33.527068,44.528202 c -13.331,-5.972 -22.079403,4.757389 -22.032404,8.125739"
               inkscape:connector-curvature="0"
               style="fill:none;stroke:#333333;stroke-width:1.99733;stroke-linecap:round;stroke-linejoin:round;stroke-miterlimit:4;stroke-dasharray:none;stroke-opacity:1"
               sodipodi:nodetypes="cc" />
            <path
               id="path953"
               d="m 48.7393,24.452 c 0,0 3.793,4.054 7.585,4.577"
               stroke-miterlimit="10"
               inkscape:connector-curvature="0"
               style="fill:none;stroke:#ff5b30;stroke-width:1.61995;stroke-linecap:round;stroke-miterlimit:10;stroke-dasharray:none;stroke-opacity:1" />
            <polyline
               id="polyline955"
               points="56.8733,33.606 55.8273,29.029 60.6653,26.806"
               stroke-miterlimit="10"
               style="fill:none;stroke:#ff5b30;stroke-width:1.61995;stroke-linecap:round;stroke-miterlimit:10;stroke-dasharray:none;stroke-opacity:1" />
          </g>
        </g>
      </g>
    </g>
  </g>
</svg>
